<svg width="359.2" height="71.501" viewBox="0 0 359.2 71.501" xmlns="http://www.w3.org/2000/svg"><g id="svgGroup" stroke-linecap="round" fill-rule="evenodd" font-size="9pt" stroke="#000" stroke-width="0.50mm" fill="#000" style="stroke:#000;stroke-width:0.50mm;fill:#000"><path d="M 2 71.2 L 0 71.2 L 0 1.2 L 1.7 1.2 L 35 59.4 L 34.1 59.4 L 67.3 1.2 L 69 1.2 L 69 71.2 L 67 71.2 L 67 4.1 L 67.8 4.1 L 35.1 61.3 L 33.9 61.3 L 1.1 4.1 L 2 4.1 L 2 71.2 Z M 295 40.7 L 295 71.2 L 293 71.2 L 293 40.7 Q 293 34.091 290.749 29.662 A 15.011 15.011 0 0 0 288.25 26.1 Q 283.5 21.1 275 21.1 A 26.623 26.623 0 0 0 269.579 21.627 A 19.772 19.772 0 0 0 263.65 23.85 Q 258.9 26.6 256.35 31.55 Q 253.8 36.5 253.8 43.1 L 253.8 71.2 L 251.8 71.2 L 251.8 40.7 Q 251.8 34.091 249.549 29.662 A 15.011 15.011 0 0 0 247.05 26.1 Q 242.3 21.1 233.8 21.1 A 26.623 26.623 0 0 0 228.379 21.627 A 19.772 19.772 0 0 0 222.45 23.85 Q 217.7 26.6 215.15 31.55 Q 212.6 36.5 212.6 43.1 L 212.6 71.2 L 210.6 71.2 L 210.6 19.5 L 212.6 19.5 L 212.6 34.1 L 212.4 33.8 Q 214.6 27.1 220.1 23.15 Q 225.6 19.2 233.7 19.2 Q 241.7 19.2 246.9 23.25 Q 252.1 27.3 253.4 35.3 L 253.1 35.2 Q 255 28.1 260.65 23.65 Q 266.3 19.2 274.9 19.2 A 26.439 26.439 0 0 1 280 19.669 A 19.491 19.491 0 0 1 285.6 21.65 A 16.614 16.614 0 0 1 292.531 28.863 A 20.13 20.13 0 0 1 292.55 28.9 Q 294.77 33.25 294.978 39.407 A 38.275 38.275 0 0 1 295 40.7 Z M 359.2 45.3 L 312.4 45.3 L 312.4 43.4 L 358.1 43.4 L 357.3 44.9 A 27.423 27.423 0 0 0 356.382 37.693 A 23.548 23.548 0 0 0 354.4 32.7 Q 351.5 27.3 346.55 24.2 A 20.41 20.41 0 0 0 337.165 21.176 A 25.111 25.111 0 0 0 335.2 21.1 A 21.913 21.913 0 0 0 327.662 22.372 A 20.229 20.229 0 0 0 323.9 24.2 Q 318.9 27.3 316.05 32.7 Q 313.2 38.1 313.2 44.9 L 313.2 45.3 A 27.744 27.744 0 0 0 314.075 52.392 A 23.211 23.211 0 0 0 316.3 57.9 Q 319.4 63.4 324.8 66.5 A 23.473 23.473 0 0 0 334.514 69.487 A 28.934 28.934 0 0 0 337.1 69.6 Q 342.3 69.6 346.95 67.6 Q 351.6 65.6 354.7 61.6 L 356.1 63 Q 352.7 67.2 347.7 69.35 Q 342.7 71.5 337.1 71.5 A 28.652 28.652 0 0 1 329.611 70.555 A 24.131 24.131 0 0 1 323.8 68.15 Q 318 64.8 314.65 58.85 A 26.117 26.117 0 0 1 311.46 48.546 A 32.219 32.219 0 0 1 311.3 45.3 A 32.431 32.431 0 0 1 312.063 38.116 A 25.63 25.63 0 0 1 314.4 31.75 Q 317.5 25.9 322.95 22.55 Q 328.4 19.2 335.2 19.2 A 24.412 24.412 0 0 1 343.544 20.6 A 22.543 22.543 0 0 1 347.45 22.45 Q 352.9 25.7 356.05 31.5 A 25.921 25.921 0 0 1 358.951 40.716 A 32.613 32.613 0 0 1 359.2 44.8 L 359.2 45 L 359.2 45.3 Z M 163.2 40.7 L 163.2 71.2 L 161.2 71.2 L 161.2 40.7 A 30.141 30.141 0 0 0 160.721 35.149 Q 160.129 31.993 158.804 29.524 A 14.984 14.984 0 0 0 156.3 26.1 A 16.061 16.061 0 0 0 148.479 21.76 Q 145.797 21.1 142.6 21.1 A 28.251 28.251 0 0 0 137.014 21.627 A 20.8 20.8 0 0 0 130.9 23.85 Q 126 26.6 123.4 31.55 Q 120.8 36.5 120.8 43.1 L 120.8 71.2 L 118.8 71.2 L 118.8 19.5 L 120.8 19.5 L 120.8 34.2 L 120.6 33.9 Q 122.9 27.1 128.5 23.15 A 21.002 21.002 0 0 1 136.365 19.803 A 29.671 29.671 0 0 1 142.5 19.2 A 28.007 28.007 0 0 1 147.755 19.669 A 20.204 20.204 0 0 1 153.5 21.65 Q 158.1 24.1 160.65 28.9 Q 162.961 33.25 163.178 39.407 A 36.775 36.775 0 0 1 163.2 40.7 Z M 95.8 71.2 L 93.8 71.2 L 93.8 19.5 L 95.8 19.5 L 95.8 71.2 Z M 187.6 71.2 L 185.6 71.2 L 185.6 19.5 L 187.6 19.5 L 187.6 71.2 Z M 93.307 4.672 A 2.381 2.381 0 0 0 94.8 5.2 Q 95.9 5.2 96.65 4.4 Q 97.4 3.6 97.4 2.6 A 3.201 3.201 0 0 0 97.4 2.566 A 2.508 2.508 0 0 0 96.65 0.75 A 2.52 2.52 0 0 0 95.841 0.2 A 2.659 2.659 0 0 0 94.8 0 A 2.442 2.442 0 0 0 93.766 0.224 A 2.89 2.89 0 0 0 93 0.75 Q 92.2 1.5 92.2 2.6 A 2.319 2.319 0 0 0 92.482 3.717 A 2.949 2.949 0 0 0 93 4.4 A 3.272 3.272 0 0 0 93.307 4.672 Z M 185.107 4.672 A 2.381 2.381 0 0 0 186.6 5.2 Q 187.7 5.2 188.45 4.4 Q 189.2 3.6 189.2 2.6 A 3.201 3.201 0 0 0 189.2 2.566 A 2.508 2.508 0 0 0 188.45 0.75 A 2.52 2.52 0 0 0 187.641 0.2 A 2.659 2.659 0 0 0 186.6 0 A 2.442 2.442 0 0 0 185.566 0.224 A 2.89 2.89 0 0 0 184.8 0.75 Q 184 1.5 184 2.6 A 2.319 2.319 0 0 0 184.282 3.717 A 2.949 2.949 0 0 0 184.8 4.4 A 3.272 3.272 0 0 0 185.107 4.672 Z" vector-effect="non-scaling-stroke"/></g></svg>